<svg id="Layer_1" data-name="Layer 1" xmlns="http://www.w3.org/2000/svg" viewBox="0 0 879.57 484.44"><defs><style>.cls-1{fill:#57eaea;}.cls-2{fill:#ede656;stroke:#000;stroke-miterlimit:10;}.cls-3{fill:#ff0;}.cls-4{fill:#c7b299;}</style></defs><title>landscape</title><rect class="cls-1" width="879.57" height="484.44"/><path class="cls-2" d="M524.78,364.3" transform="translate(-29.51 -237.1)"/><circle class="cls-3" cx="110.28" cy="110.28" r="110.28"/><polygon class="cls-1" points="424.9 368.06 271.05 315.18 239.93 155.51 362.65 48.71 516.5 101.6 547.62 261.27 424.9 368.06"/><polygon class="cls-1" points="424.9 205.38 284.01 449.4 565.78 449.4 424.9 205.38"/><path class="cls-4" d="M524.78,595.25,339.24,721.54H621Q572.89,658.39,524.78,595.25Z" transform="translate(-29.51 -237.1)"/><path class="cls-4" d="M665.71,517.21,499.11,721.54H780.89Q723.29,619.38,665.71,517.21Z" transform="translate(-29.51 -237.1)"/><path class="cls-4" d="M673.63,641.7" transform="translate(-29.51 -237.1)"/><path class="cls-4" d="M878,427.9,621,721.54H909.08Q893.53,574.72,878,427.9Z" transform="translate(-29.51 -237.1)"/><path class="cls-4" d="M853.6,442.79q-2-13.55-4.06-27.07" transform="translate(-29.51 -237.1)"/></svg>