<?xml version="1.0" encoding="utf-8"?>
<!-- Generator: Adobe Illustrator 22.1.0, SVG Export Plug-In . SVG Version: 6.00 Build 0)  -->
<svg version="1.1" id="Layer_1" xmlns="http://www.w3.org/2000/svg" xmlns:xlink="http://www.w3.org/1999/xlink" x="0px" y="0px"
	 viewBox="0 0 1280 1024" style="enable-background:new 0 0 1280 1024;" xml:space="preserve">
<style type="text/css">
	.st0{fill:#00FFFF;}
	.st1{fill:#FFFFFF;}
	.st2{fill:#29ABE2;}
	.st3{fill:#1B1464;}
	.st4{fill:#FF0000;}
	.st5{fill:url(#SVGID_1_);}
	.st6{fill:url(#SVGID_2_);}
	.st7{fill:#00A99D;}
	.st8{fill:url(#SVGID_3_);}
	.st9{fill:url(#SVGID_4_);}
	.st10{fill:#00B6B0;}
	.st11{fill:#9E005D;}
	.st12{fill:url(#SVGID_5_);}
	.st13{fill:url(#SVGID_6_);}
	.st14{fill:url(#SVGID_7_);}
	.st15{fill:#EC008C;}
	.st16{fill:url(#SVGID_8_);}
	.st17{fill:url(#SVGID_9_);}
	.st18{fill:#FFCB05;}
	.st19{fill:url(#SVGID_10_);}
	.st20{fill:url(#SVGID_11_);}
	.st21{fill:url(#SVGID_12_);}
	.st22{fill:url(#SVGID_13_);}
	.st23{fill:url(#SVGID_14_);}
	.st24{fill:url(#SVGID_15_);}
	.st25{fill:url(#SVGID_16_);}
	.st26{fill:url(#SVGID_17_);}
	.st27{fill:#3C2415;}
	.st28{fill:url(#SVGID_18_);}
	.st29{fill:url(#SVGID_19_);}
	.st30{fill:url(#SVGID_20_);}
	.st31{fill:url(#SVGID_21_);}
	.st32{fill:url(#SVGID_22_);}
	.st33{fill:url(#SVGID_23_);}
	.st34{fill:url(#SVGID_24_);}
	.st35{fill:url(#SVGID_25_);}
	.st36{fill:url(#SVGID_26_);}
	.st37{fill:url(#SVGID_27_);}
	.st38{fill:url(#SVGID_28_);}
	.st39{fill:url(#SVGID_29_);}
	.st40{fill:url(#SVGID_30_);}
	.st41{fill:url(#SVGID_31_);}
	.st42{fill:url(#SVGID_32_);}
	.st43{opacity:0.8;fill:#FFFFFF;}
</style>
<rect x="8" y="151" class="st0" width="1272" height="732"/>
<polygon class="st1" points="1280,591.9 724.4,272.2 724.4,365 1280,684.8 "/>
<polygon class="st2" points="395.9,574.3 444.4,546.4 264.6,442.9 167.6,442.9 "/>
<polygon class="st1" points="878.9,528.3 721.9,528.3 561.6,436 369.7,546.5 146.4,418 71.9,418 8,381.2 8,883 1280,883 1280,759.1 
	"/>
<polygon class="st0" points="531.5,509.6 531.5,788.3 696,883 1180.4,883 "/>
<polygon class="st3" points="693.2,657.4 577.6,657.4 577.6,701 508.4,701 285.1,572.4 8,572.4 8,883 1085.3,883 "/>
<path class="st4" d="M783.8,674.8l-81.4,50.5L976.5,883h169.1L783.8,674.8z M677.1,740.9L924.1,883h25.7L689.5,733.2L677.1,740.9z"
	/>
<linearGradient id="SVGID_1_" gradientUnits="userSpaceOnUse" x1="440.4008" y1="565.9632" x2="933.6206" y2="565.9632" gradientTransform="matrix(-1 0 0 -1 1228.5059 1378.0059)">
	<stop  offset="0" style="stop-color:#CCE0F4"/>
	<stop  offset="6.405089e-02" style="stop-color:#C3DCF2"/>
	<stop  offset="0.1706" style="stop-color:#A9D2EE"/>
	<stop  offset="0.3066" style="stop-color:#80C2E7"/>
	<stop  offset="0.4649" style="stop-color:#47ACDE"/>
	<stop  offset="0.5674" style="stop-color:#1E9CD7"/>
	<stop  offset="0.8652" style="stop-color:#0075BE"/>
	<stop  offset="0.9944" style="stop-color:#005B97"/>
</linearGradient>
<polygon class="st5" points="788.1,883 294.9,883 541.5,741.1 "/>
<linearGradient id="SVGID_2_" gradientUnits="userSpaceOnUse" x1="579.9449" y1="812.0427" x2="379.0849" y2="812.0427">
	<stop  offset="3.030300e-02" style="stop-color:#F26522"/>
	<stop  offset="7.129092e-02" style="stop-color:#F4781E"/>
	<stop  offset="0.1372" style="stop-color:#F8901A"/>
	<stop  offset="0.2125" style="stop-color:#FAA217"/>
	<stop  offset="0.3018" style="stop-color:#FCAF15"/>
	<stop  offset="0.4186" style="stop-color:#FDB614"/>
	<stop  offset="0.6667" style="stop-color:#FDB913"/>
</linearGradient>
<polygon class="st6" points="541.5,883 294.9,883 541.5,741.1 541.5,741.1 "/>
<polygon class="st7" points="677.1,740.9 677.1,740.9 541.5,741.1 788.1,883 924.1,883 "/>
<linearGradient id="SVGID_3_" gradientUnits="userSpaceOnUse" x1="448.931" y1="485.9364" x2="590.6958" y2="627.7012" gradientTransform="matrix(-1 0 0 1 1228.5059 296.8047)">
	<stop  offset="0" style="stop-color:#00B6B0"/>
	<stop  offset="0.1904" style="stop-color:#01B3AF"/>
	<stop  offset="0.2933" style="stop-color:#04ABA9"/>
	<stop  offset="0.3753" style="stop-color:#099E9F"/>
	<stop  offset="0.4463" style="stop-color:#108A91"/>
	<stop  offset="0.5101" style="stop-color:#19717F"/>
	<stop  offset="0.568" style="stop-color:#255369"/>
	<stop  offset="0.6121" style="stop-color:#2F3654"/>
</linearGradient>
<polygon class="st8" points="677.1,776.1 862.9,883 788.1,883 602.5,776.2 677.1,776.1 "/>
<polygon class="st7" points="786.8,697.3 743.4,722.2 1022.8,883 1109.6,883 "/>
<linearGradient id="SVGID_4_" gradientUnits="userSpaceOnUse" x1="8" y1="748.1744" x2="476.5817" y2="748.1744">
	<stop  offset="0" style="stop-color:#CCE0F4"/>
	<stop  offset="6.405089e-02" style="stop-color:#C3DCF2"/>
	<stop  offset="0.1706" style="stop-color:#A9D2EE"/>
	<stop  offset="0.3066" style="stop-color:#80C2E7"/>
	<stop  offset="0.4649" style="stop-color:#47ACDE"/>
	<stop  offset="0.5674" style="stop-color:#1E9CD7"/>
	<stop  offset="0.8652" style="stop-color:#0075BE"/>
	<stop  offset="0.9944" style="stop-color:#005B97"/>
</linearGradient>
<polygon class="st9" points="8,613.3 8,883 476.6,883 "/>
<polygon class="st10" points="8,564.7 431.3,808.3 520.9,808.3 8,513.1 "/>
<polygon class="st3" points="566.2,883 476.6,883 431.2,856.9 520.8,856.9 "/>
<polygon class="st11" points="8,613.4 431.2,856.9 431.2,808.3 8,564.7 "/>
<polygon class="st4" points="8,532.8 560.4,850.7 560.4,799.8 8,481.9 "/>
<linearGradient id="SVGID_5_" gradientUnits="userSpaceOnUse" x1="458.5865" y1="466.594" x2="-51.7081" y2="976.8885">
	<stop  offset="0" style="stop-color:#00B6B0"/>
	<stop  offset="0.1686" style="stop-color:#01B3AE"/>
	<stop  offset="0.2868" style="stop-color:#04AAA8"/>
	<stop  offset="0.3895" style="stop-color:#0A9A9C"/>
	<stop  offset="0.4834" style="stop-color:#12848C"/>
	<stop  offset="0.5714" style="stop-color:#1D6878"/>
	<stop  offset="0.6538" style="stop-color:#29465F"/>
	<stop  offset="0.6856" style="stop-color:#2F3654"/>
</linearGradient>
<polygon class="st12" points="8,532.8 486.8,808.3 520.9,808.3 8,513.1 "/>
<polygon class="st7" points="8,498.5 430.2,741.5 499.2,741.5 8,458.8 "/>
<linearGradient id="SVGID_6_" gradientUnits="userSpaceOnUse" x1="908.1282" y1="802.612" x2="1280" y2="802.612">
	<stop  offset="0" style="stop-color:#00B6B0"/>
	<stop  offset="0.2745" style="stop-color:#01B3AF"/>
	<stop  offset="0.4066" style="stop-color:#04ACA9"/>
	<stop  offset="0.5084" style="stop-color:#089FA0"/>
	<stop  offset="0.5945" style="stop-color:#0F8C92"/>
	<stop  offset="0.6708" style="stop-color:#187481"/>
	<stop  offset="0.739" style="stop-color:#23576C"/>
	<stop  offset="0.8" style="stop-color:#2F3654"/>
</linearGradient>
<polygon class="st13" points="1029.8,722.2 908.1,722.2 1187.5,883 1280,883 1280,866.2 "/>
<linearGradient id="SVGID_7_" gradientUnits="userSpaceOnUse" x1="1168.4572" y1="615.1227" x2="798.1486" y2="985.4313">
	<stop  offset="0" style="stop-color:#00B6B0"/>
	<stop  offset="0.2778" style="stop-color:#01B4AF"/>
	<stop  offset="0.3778" style="stop-color:#03ADAA"/>
	<stop  offset="0.4491" style="stop-color:#08A1A1"/>
	<stop  offset="0.5068" style="stop-color:#0E9095"/>
	<stop  offset="0.5562" style="stop-color:#167A85"/>
	<stop  offset="0.5999" style="stop-color:#205F71"/>
	<stop  offset="0.6384" style="stop-color:#2C405B"/>
	<stop  offset="0.6485" style="stop-color:#2F3654"/>
</linearGradient>
<polygon class="st14" points="863.8,674.8 783.8,674.8 1145.6,883 1225.6,883 "/>
<polygon class="st15" points="441.7,883 417.3,883 297.1,813.9 321.6,813.9 "/>
<linearGradient id="SVGID_8_" gradientUnits="userSpaceOnUse" x1="544.1304" y1="301.0577" x2="-431.1297" y2="1276.3177">
	<stop  offset="7.008800e-02" style="stop-color:#F26522"/>
	<stop  offset="0.1324" style="stop-color:#F57E1D"/>
	<stop  offset="0.2086" style="stop-color:#F8931A"/>
	<stop  offset="0.2986" style="stop-color:#FAA417"/>
	<stop  offset="0.41" style="stop-color:#FCB015"/>
	<stop  offset="0.5662" style="stop-color:#FDB713"/>
	<stop  offset="1" style="stop-color:#FDB913"/>
</linearGradient>
<polygon class="st16" points="8,498.5 430.2,741.5 459,741.5 8,481.9 "/>
<linearGradient id="SVGID_9_" gradientUnits="userSpaceOnUse" x1="606.7713" y1="505.6193" x2="682.6677" y2="581.5157" gradientTransform="matrix(-1 0 0 1 1228.5059 296.8047)">
	<stop  offset="0" style="stop-color:#EC008C"/>
	<stop  offset="0.1201" style="stop-color:#E7018A"/>
	<stop  offset="0.2592" style="stop-color:#D90383"/>
	<stop  offset="0.4077" style="stop-color:#C20678"/>
	<stop  offset="0.5629" style="stop-color:#A20A69"/>
	<stop  offset="0.7216" style="stop-color:#781055"/>
	<stop  offset="0.8545" style="stop-color:#501542"/>
</linearGradient>
<polygon class="st17" points="622.1,850.7 560.4,850.7 560.4,815.2 "/>
<polygon class="st18" points="8,883 8,797.1 243.5,797.1 392.7,883 "/>
<polygon class="st4" points="243.5,797.1 8,797.1 8,883 243.6,883 243.6,797.2 "/>
<polygon class="st10" points="355.3,883 265.7,883 172.7,829.5 262.4,829.5 "/>
<linearGradient id="SVGID_10_" gradientUnits="userSpaceOnUse" x1="1049.1469" y1="599.2963" x2="966.5571" y2="516.7065" gradientTransform="matrix(-1 0 0 1 1228.5059 296.8047)">
	<stop  offset="0" style="stop-color:#00B6B0"/>
	<stop  offset="0.6398" style="stop-color:#2F3654"/>
	<stop  offset="0.6727" style="stop-color:#5F316E"/>
</linearGradient>
<polygon class="st19" points="265.7,883 210.7,883 172.7,861.1 172.7,829.5 "/>
<linearGradient id="SVGID_11_" gradientUnits="userSpaceOnUse" x1="93.7687" y1="881.2745" x2="281.3307" y2="693.7126">
	<stop  offset="0" style="stop-color:#00B6B0"/>
	<stop  offset="0.2745" style="stop-color:#01B3AF"/>
	<stop  offset="0.4066" style="stop-color:#04ACA9"/>
	<stop  offset="0.5084" style="stop-color:#089FA0"/>
	<stop  offset="0.5945" style="stop-color:#0F8C92"/>
	<stop  offset="0.6708" style="stop-color:#187481"/>
	<stop  offset="0.739" style="stop-color:#23576C"/>
	<stop  offset="0.8" style="stop-color:#2F3654"/>
</linearGradient>
<polygon class="st20" points="152.9,696.8 152.9,788.3 312.1,788.3 "/>
<polygon class="st7" points="8,704.9 152.9,788.3 152.9,788.3 152.9,696.8 8,613.3 "/>
<linearGradient id="SVGID_12_" gradientUnits="userSpaceOnUse" x1="646.9484" y1="580.3979" x2="516.6268" y2="580.3979" gradientTransform="matrix(-1 0 0 -1 1228.5059 1378.0059)">
	<stop  offset="0" style="stop-color:#00B6B0"/>
	<stop  offset="0.1643" style="stop-color:#01B2AE"/>
	<stop  offset="0.3051" style="stop-color:#05A8A6"/>
	<stop  offset="0.4373" style="stop-color:#0C9699"/>
	<stop  offset="0.5643" style="stop-color:#157D87"/>
	<stop  offset="0.6863" style="stop-color:#215D70"/>
	<stop  offset="0.8052" style="stop-color:#2F3754"/>
	<stop  offset="0.8065" style="stop-color:#2F3654"/>
	<stop  offset="0.8424" style="stop-color:#5F316E"/>
</linearGradient>
<polygon class="st21" points="677.1,819.1 602.5,776.2 677.1,776.1 677.1,776.1 "/>
<polygon class="st18" points="786.8,697.3 830.2,722.2 743.5,722.2 "/>
<linearGradient id="SVGID_13_" gradientUnits="userSpaceOnUse" x1="1119.1354" y1="542.6401" x2="1119.1354" y2="609.9753" gradientTransform="matrix(-1 0 0 1 1228.5059 296.8047)">
	<stop  offset="0.2727" style="stop-color:#F26522"/>
	<stop  offset="0.2957" style="stop-color:#F36E1F"/>
	<stop  offset="0.3946" style="stop-color:#F78F16"/>
	<stop  offset="0.496" style="stop-color:#FBAA0E"/>
	<stop  offset="0.5997" style="stop-color:#FDBC09"/>
	<stop  offset="0.7072" style="stop-color:#FFC706"/>
	<stop  offset="0.8242" style="stop-color:#FFCB05"/>
</linearGradient>
<polygon class="st22" points="172.7,861.1 172.7,861.1 210.7,883 8,883 8,861.1 "/>
<polygon class="st4" points="647,851.6 647.2,801.9 788.1,883 701.5,883 646.9,851.6 "/>
<linearGradient id="SVGID_14_" gradientUnits="userSpaceOnUse" x1="538.1642" y1="494.9612" x2="538.1642" y2="574.1404" gradientTransform="matrix(-1 0 0 1 1228.5059 296.8047)">
	<stop  offset="0" style="stop-color:#EC008C"/>
	<stop  offset="0.1691" style="stop-color:#E8018A"/>
	<stop  offset="0.3289" style="stop-color:#DD0285"/>
	<stop  offset="0.4849" style="stop-color:#CA057C"/>
	<stop  offset="0.6388" style="stop-color:#AF086F"/>
	<stop  offset="0.791" style="stop-color:#8C0D5F"/>
	<stop  offset="0.9399" style="stop-color:#63134B"/>
	<stop  offset="1" style="stop-color:#501542"/>
</linearGradient>
<polygon class="st23" points="647.2,801.9 733.7,851.7 647.1,851.7 646.9,851.6 647,851.6 "/>
<linearGradient id="SVGID_15_" gradientUnits="userSpaceOnUse" x1="986.0207" y1="655.1041" x2="712.0328" y2="929.092">
	<stop  offset="3.636360e-02" style="stop-color:#F26522"/>
	<stop  offset="0.1515" style="stop-color:#F4781E"/>
	<stop  offset="0.3649" style="stop-color:#F8941A"/>
	<stop  offset="0.5785" style="stop-color:#FBA816"/>
	<stop  offset="0.7907" style="stop-color:#FDB414"/>
	<stop  offset="1" style="stop-color:#FDB913"/>
</linearGradient>
<polygon class="st24" points="716.3,733.2 689.5,733.2 949.8,883 976.5,883 "/>
<linearGradient id="SVGID_16_" gradientUnits="userSpaceOnUse" x1="1105.6173" y1="1121.3578" x2="1204.9662" y2="1022.0089" gradientTransform="matrix(1 0 0 -1 -713.9648 1347.3906)">
	<stop  offset="0.3152" style="stop-color:#00B6B0"/>
	<stop  offset="0.5084" style="stop-color:#01B4AF"/>
	<stop  offset="0.5966" style="stop-color:#04ACA9"/>
	<stop  offset="0.6635" style="stop-color:#089FA0"/>
	<stop  offset="0.7196" style="stop-color:#0F8D93"/>
	<stop  offset="0.769" style="stop-color:#187682"/>
	<stop  offset="0.8129" style="stop-color:#22596D"/>
	<stop  offset="0.8532" style="stop-color:#2F3755"/>
	<stop  offset="0.8545" style="stop-color:#2F3654"/>
</linearGradient>
<polygon class="st25" points="342.1,151 506.7,151 506.7,271.8 342.1,366.5 "/>
<linearGradient id="SVGID_17_" gradientUnits="userSpaceOnUse" x1="8" y1="258.7782" x2="342.0512" y2="258.7782">
	<stop  offset="0" style="stop-color:#CCE0F4"/>
	<stop  offset="6.405089e-02" style="stop-color:#C3DCF2"/>
	<stop  offset="0.1706" style="stop-color:#A9D2EE"/>
	<stop  offset="0.3066" style="stop-color:#80C2E7"/>
	<stop  offset="0.4649" style="stop-color:#47ACDE"/>
	<stop  offset="0.5674" style="stop-color:#1E9CD7"/>
	<stop  offset="0.8652" style="stop-color:#0075BE"/>
	<stop  offset="0.9944" style="stop-color:#005B97"/>
</linearGradient>
<polygon class="st26" points="8,174.3 342.1,366.5 342.1,151 8,151 "/>
<polygon class="st7" points="148.3,305.4 148.3,151 8,151 8,224.7 "/>
<polygon class="st15" points="417.7,287.4 471,254.3 291.5,151 180.7,151 "/>
<polygon class="st15" points="342.1,170.1 342.1,160.4 487.5,244.1 479.4,249.1 "/>
<polygon class="st3" points="414.8,151 737.9,151 576.3,244 "/>
<polygon class="st27" points="342.1,287.4 342.1,243.9 417.7,287.4 "/>
<polygon class="st7" points="487.6,244.1 487.5,244.1 342.1,160.4 342.1,151 414.8,151 576.3,244 "/>
<linearGradient id="SVGID_18_" gradientUnits="userSpaceOnUse" x1="1134.3911" y1="1208.6421" x2="1227.2404" y2="1301.4913" gradientTransform="matrix(1 0 0 -1 -713.9648 1425.3164)">
	<stop  offset="0" style="stop-color:#00B6B0"/>
	<stop  offset="0.1904" style="stop-color:#01B3AF"/>
	<stop  offset="0.2933" style="stop-color:#04ABA9"/>
	<stop  offset="0.3753" style="stop-color:#099E9F"/>
	<stop  offset="0.4463" style="stop-color:#108A91"/>
	<stop  offset="0.5101" style="stop-color:#19717F"/>
	<stop  offset="0.568" style="stop-color:#255369"/>
	<stop  offset="0.6121" style="stop-color:#2F3654"/>
</linearGradient>
<polygon class="st28" points="487.5,221 365.8,151 414.8,151 536.4,221 487.5,221 "/>
<linearGradient id="SVGID_19_" gradientUnits="userSpaceOnUse" x1="251.8566" y1="275.9855" x2="432.261" y2="95.5811">
	<stop  offset="9.696970e-02" style="stop-color:#F26522"/>
	<stop  offset="0.1551" style="stop-color:#F4781E"/>
	<stop  offset="0.2486" style="stop-color:#F8901A"/>
	<stop  offset="0.3555" style="stop-color:#FAA217"/>
	<stop  offset="0.4822" style="stop-color:#FCAF15"/>
	<stop  offset="0.648" style="stop-color:#FDB614"/>
	<stop  offset="1" style="stop-color:#FDB913"/>
</linearGradient>
<polygon class="st29" points="415.7,272.6 444.1,256.3 261.1,151 204.3,151 "/>
<linearGradient id="SVGID_20_" gradientUnits="userSpaceOnUse" x1="1264.0814" y1="-137.18" x2="1178.7292" y2="-137.18" gradientTransform="matrix(1 0 0 1 -713.9648 344.1152)">
	<stop  offset="0" style="stop-color:#00B6B0"/>
	<stop  offset="0.1983" style="stop-color:#01B3AE"/>
	<stop  offset="0.334" style="stop-color:#04AAA8"/>
	<stop  offset="0.4509" style="stop-color:#0A9B9D"/>
	<stop  offset="0.5573" style="stop-color:#12858D"/>
	<stop  offset="0.6565" style="stop-color:#1C6979"/>
	<stop  offset="0.7491" style="stop-color:#294760"/>
	<stop  offset="0.7887" style="stop-color:#2F3654"/>
</linearGradient>
<polygon class="st30" points="487.5,192.8 536.4,221 487.5,221 487.5,221 "/>
<polygon class="st18" points="415.7,272.6 387.3,256.3 444.1,256.3 "/>
<linearGradient id="SVGID_21_" gradientUnits="userSpaceOnUse" x1="470.4776" y1="167.7613" x2="438.7232" y2="199.5157">
	<stop  offset="0" style="stop-color:#EC008C"/>
	<stop  offset="0.1691" style="stop-color:#E8018A"/>
	<stop  offset="0.3289" style="stop-color:#DD0285"/>
	<stop  offset="0.4849" style="stop-color:#CA057C"/>
	<stop  offset="0.6388" style="stop-color:#AF086F"/>
	<stop  offset="0.791" style="stop-color:#8C0D5F"/>
	<stop  offset="0.9399" style="stop-color:#63134B"/>
	<stop  offset="1" style="stop-color:#501542"/>
</linearGradient>
<polygon class="st31" points="506.7,171.6 471,151 414.8,151 506.7,203.9 "/>
<linearGradient id="SVGID_22_" gradientUnits="userSpaceOnUse" x1="478.6422" y1="203.2796" x2="478.6422" y2="165.456">
	<stop  offset="0" style="stop-color:#EC008C"/>
	<stop  offset="0.1691" style="stop-color:#E8018A"/>
	<stop  offset="0.3289" style="stop-color:#DD0285"/>
	<stop  offset="0.4849" style="stop-color:#CA057C"/>
	<stop  offset="0.6388" style="stop-color:#AF086F"/>
	<stop  offset="0.791" style="stop-color:#8C0D5F"/>
	<stop  offset="0.9399" style="stop-color:#63134B"/>
	<stop  offset="1" style="stop-color:#501542"/>
</linearGradient>
<polygon class="st32" points="450.5,171.6 506.7,203.9 506.7,171.6 "/>
<linearGradient id="SVGID_23_" gradientUnits="userSpaceOnUse" x1="1096.3596" y1="1187.3955" x2="1149.3319" y2="1240.3678" gradientTransform="matrix(1 0 0 -1 -713.9648 1425.3164)">
	<stop  offset="3.636360e-02" style="stop-color:#F26522"/>
	<stop  offset="0.1515" style="stop-color:#F4781E"/>
	<stop  offset="0.3649" style="stop-color:#F8941A"/>
	<stop  offset="0.5785" style="stop-color:#FBA816"/>
	<stop  offset="0.7907" style="stop-color:#FDB414"/>
	<stop  offset="1" style="stop-color:#FDB913"/>
</linearGradient>
<polygon class="st33" points="461.9,249.1 342.1,180.1 342.1,170.1 479.4,249.1 "/>
<polygon class="st10" points="1279.9,597 589.8,199.9 648.5,199.9 1279.9,563.2 "/>
<polygon class="st15" points="1279.9,617.5 576.4,212.6 576.4,179.3 1279.9,584.2 "/>
<linearGradient id="SVGID_24_" gradientUnits="userSpaceOnUse" x1="1591.6383" y1="969.6575" x2="1894.672" y2="1272.6912" gradientTransform="matrix(1 0 0 -1 -713.9648 1425.3164)">
	<stop  offset="0" style="stop-color:#00B6B0"/>
	<stop  offset="0.1045" style="stop-color:#03ADAA"/>
	<stop  offset="0.2749" style="stop-color:#0C9498"/>
	<stop  offset="0.49" style="stop-color:#1B6D7B"/>
	<stop  offset="0.7394" style="stop-color:#2F3654"/>
</linearGradient>
<polygon class="st34" points="1279.9,597 589.8,199.9 612.2,199.9 1279.9,584.2 "/>
<linearGradient id="SVGID_25_" gradientUnits="userSpaceOnUse" x1="604.051" y1="438.1638" x2="1279.8761" y2="438.1638">
	<stop  offset="0.2727" style="stop-color:#F26522"/>
	<stop  offset="0.2957" style="stop-color:#F36E1F"/>
	<stop  offset="0.3946" style="stop-color:#F78F16"/>
	<stop  offset="0.496" style="stop-color:#FBAA0E"/>
	<stop  offset="0.5997" style="stop-color:#FDBC09"/>
	<stop  offset="0.7072" style="stop-color:#FFC706"/>
	<stop  offset="0.8242" style="stop-color:#FFCB05"/>
</linearGradient>
<polygon class="st35" points="1279.9,632.6 604.1,243.7 649.3,243.7 1279.9,606.6 "/>
<linearGradient id="SVGID_26_" gradientUnits="userSpaceOnUse" x1="1523.9463" y1="849.5779" x2="1775.871" y2="1101.5027" gradientTransform="matrix(1 0 0 -1 -713.9648 1425.3164)">
	<stop  offset="9.696970e-02" style="stop-color:#F26522"/>
	<stop  offset="0.1551" style="stop-color:#F4781E"/>
	<stop  offset="0.2486" style="stop-color:#F8901A"/>
	<stop  offset="0.3555" style="stop-color:#FAA217"/>
	<stop  offset="0.4822" style="stop-color:#FCAF15"/>
	<stop  offset="0.648" style="stop-color:#FDB614"/>
	<stop  offset="1" style="stop-color:#FDB913"/>
</linearGradient>
<polygon class="st36" points="1279.9,617.5 630.4,243.7 649.3,243.7 1279.9,606.6 "/>
<linearGradient id="SVGID_27_" gradientUnits="userSpaceOnUse" x1="618.8644" y1="341.2049" x2="1280" y2="341.2049">
	<stop  offset="0" style="stop-color:#CCE0F4"/>
	<stop  offset="6.405089e-02" style="stop-color:#C3DCF2"/>
	<stop  offset="0.1706" style="stop-color:#A9D2EE"/>
	<stop  offset="0.3066" style="stop-color:#80C2E7"/>
	<stop  offset="0.4649" style="stop-color:#47ACDE"/>
	<stop  offset="0.5674" style="stop-color:#1E9CD7"/>
	<stop  offset="0.8652" style="stop-color:#0075BE"/>
	<stop  offset="0.9944" style="stop-color:#005B97"/>
</linearGradient>
<path class="st37" d="M1279.9,152.2v379.2L618.9,151H1280C1279.9,151.4,1279.9,151.8,1279.9,152.2z"/>
<linearGradient id="SVGID_28_" gradientUnits="userSpaceOnUse" x1="2090.1619" y1="1121.0852" x2="1856.9724" y2="1121.0852" gradientTransform="matrix(1 0 0 -1 -713.9648 1347.3906)">
	<stop  offset="0" style="stop-color:#00B6B0"/>
	<stop  offset="0.3608" style="stop-color:#01B4AF"/>
	<stop  offset="0.4908" style="stop-color:#03ADAA"/>
	<stop  offset="0.5835" style="stop-color:#08A1A1"/>
	<stop  offset="0.6584" style="stop-color:#0E9095"/>
	<stop  offset="0.7225" style="stop-color:#167A85"/>
	<stop  offset="0.7793" style="stop-color:#205F71"/>
	<stop  offset="0.8294" style="stop-color:#2C405B"/>
	<stop  offset="0.8424" style="stop-color:#2F3654"/>
</linearGradient>
<path class="st38" d="M1280,151c-0.1,0.4-0.1,0.8-0.1,1.2v149.4h-87.2L931,151H1280z"/>
<path class="st11" d="M1092.8,151H1280c-0.1,0.4-0.1,0.8-0.1,1.2v106.5L1092.8,151z"/>
<polygon class="st3" points="821.1,207.4 821.1,267.4 716.9,207.4 "/>
<linearGradient id="SVGID_29_" gradientUnits="userSpaceOnUse" x1="1725.7751" y1="1071.036" x2="1889.3628" y2="1234.6237" gradientTransform="matrix(1 0 0 -1 -713.9648 1347.3906)">
	<stop  offset="0" style="stop-color:#00B6B0"/>
	<stop  offset="0.2745" style="stop-color:#01B3AF"/>
	<stop  offset="0.4066" style="stop-color:#04ACA9"/>
	<stop  offset="0.5084" style="stop-color:#089FA0"/>
	<stop  offset="0.5945" style="stop-color:#0F8C92"/>
	<stop  offset="0.6708" style="stop-color:#187481"/>
	<stop  offset="0.739" style="stop-color:#23576C"/>
	<stop  offset="0.8" style="stop-color:#2F3654"/>
</linearGradient>
<polygon class="st39" points="1192.7,301.6 1192.7,301.6 931,151 1092.8,151 1192.7,208.5 "/>
<polygon class="st4" points="1279.9,563.2 648.6,200 648.6,168.1 1279.9,531.4 "/>
<linearGradient id="SVGID_30_" gradientUnits="userSpaceOnUse" x1="148.2944" y1="280.2281" x2="235.8139" y2="280.2281">
	<stop  offset="0" style="stop-color:#00B6B0"/>
	<stop  offset="0.1643" style="stop-color:#01B2AE"/>
	<stop  offset="0.3051" style="stop-color:#05A8A6"/>
	<stop  offset="0.4373" style="stop-color:#0C9699"/>
	<stop  offset="0.5643" style="stop-color:#157D87"/>
	<stop  offset="0.6863" style="stop-color:#215D70"/>
	<stop  offset="0.8052" style="stop-color:#2F3754"/>
	<stop  offset="0.8065" style="stop-color:#2F3654"/>
	<stop  offset="0.8424" style="stop-color:#5F316E"/>
</linearGradient>
<polygon class="st40" points="148.3,255 148.3,305.4 235.8,305.4 "/>
<polygon class="st3" points="931,151 723.1,151 1080.6,356.8 1192.6,356.8 1192.7,301.6 "/>
<linearGradient id="SVGID_31_" gradientUnits="userSpaceOnUse" x1="1588.7355" y1="954.4317" x2="1786.6132" y2="1152.3094" gradientTransform="matrix(1 0 0 -1 -713.9648 1347.3906)">
	<stop  offset="0" style="stop-color:#00B6B0"/>
	<stop  offset="0.2745" style="stop-color:#01B3AF"/>
	<stop  offset="0.4066" style="stop-color:#04ACA9"/>
	<stop  offset="0.5084" style="stop-color:#089FA0"/>
	<stop  offset="0.5945" style="stop-color:#0F8C92"/>
	<stop  offset="0.6708" style="stop-color:#187481"/>
	<stop  offset="0.739" style="stop-color:#23576C"/>
	<stop  offset="0.8" style="stop-color:#2F3654"/>
</linearGradient>
<polygon class="st41" points="931,151 1192.7,301.6 1192.6,356.8 1192.6,356.8 835.1,151 "/>
<polygon class="st7" points="821.1,207.4 821.1,267.4 1279.9,531.4 1279.9,471.4 "/>
<g>
	<g>
		<linearGradient id="SVGID_32_" gradientUnits="userSpaceOnUse" x1="8" y1="381" x2="8" y2="381">
			<stop  offset="0.2727" style="stop-color:#F26522"/>
			<stop  offset="0.2957" style="stop-color:#F36E1F"/>
			<stop  offset="0.3946" style="stop-color:#F78F16"/>
			<stop  offset="0.496" style="stop-color:#FBAA0E"/>
			<stop  offset="0.5997" style="stop-color:#FDBC09"/>
			<stop  offset="0.7072" style="stop-color:#FFC706"/>
			<stop  offset="0.8242" style="stop-color:#FFCB05"/>
		</linearGradient>
		<path class="st42" d="M8,381"/>
	</g>
</g>
<rect x="8" y="133" class="st43" width="1272" height="759"/>
</svg>
