<svg id="Layer_1" data-name="Layer 1" xmlns="http://www.w3.org/2000/svg" viewBox="0 0 1072.97 555.38"><defs><style>.cls-1{fill:#1b1464;}.cls-2{fill:#202020;}.cls-3,.cls-5{fill:aqua;}.cls-4{fill:none;}.cls-5{stroke:aqua;}.cls-5,.cls-6{stroke-miterlimit:10;}.cls-6{fill:#fff;stroke:#000;}</style></defs><title>night</title><path class="cls-1" d="M1079.58,809.5H13.28V260.11h1066.3Z" transform="translate(-10.47 -256.78)"/><path class="cls-2" d="M1082,805.72c0,4.77.38,3.06.45,3.78C1082.38,801.52,1081.91,805.92,1082,805.72Z" transform="translate(-10.47 -256.78)"/><polygon class="cls-2" points="1070.59 470.19 1070.76 471.58 1070.34 459.97 1070.59 470.19"/><path class="cls-2" d="M1081.07,653.32c-.71,7,.12,26.69-.14,39.81l-.16,2.16.58,5.92C1081.26,685.26,1080.87,664.55,1081.07,653.32Z" transform="translate(-10.47 -256.78)"/><path class="cls-2" d="M1082.62,614.05c-.28,2.43-.24-8.49-.09,9.16,0-.88,0-1.14.07-1.66C1082.6,620,1082.61,617.78,1082.62,614.05Z" transform="translate(-10.47 -256.78)"/><path class="cls-2" d="M1082.6,621.55c0,7.76.23-5.07,0,0Z" transform="translate(-10.47 -256.78)"/><path class="cls-2" d="M1082.44,585.74l.25,10.21c.16-2.13.2-11.22.32-7.85C1082.87,577.62,1082.71,579.78,1082.44,585.74Z" transform="translate(-10.47 -256.78)"/><path class="cls-2" d="M1081.92,576.05l.11,5.29A39.35,39.35,0,0,0,1081.92,576.05Z" transform="translate(-10.47 -256.78)"/><path class="cls-2" d="M1082.25,592.57l-.22-11.23a15.73,15.73,0,0,0,.08,5.16C1081.89,585.58,1082.1,587.8,1082.25,592.57Z" transform="translate(-10.47 -256.78)"/><path class="cls-2" d="M1082.14,598.93c-.16,5.73-.25,13.13-.5,2.88C1081.74,621.35,1082.24,618.47,1082.14,598.93Z" transform="translate(-10.47 -256.78)"/><path class="cls-2" d="M1080.33,649.56l-.2,7.66.24,6.63C1080.25,660.54,1080.56,649.09,1080.33,649.56Z" transform="translate(-10.47 -256.78)"/><path class="cls-2" d="M1082.81,522.1c-.15-.64-.4,3.43-.6,4.19l.18,7.55C1082.49,530,1082.59,522.61,1082.81,522.1Z" transform="translate(-10.47 -256.78)"/><path class="cls-2" d="M1082.21,526.29,1082,515C1081.92,525.09,1082,526.93,1082.21,526.29Z" transform="translate(-10.47 -256.78)"/><polygon class="cls-2" points="1070.65 317.45 1071.2 336 1070.65 313.87 1070.65 317.45"/><polygon class="cls-2" points="1072.36 222.19 1072.71 228.6 1072.18 217.19 1072.36 222.19"/><path class="cls-2" d="M1082.77,450.37c.29,4.74.49-6.49.67-1.48,0-7.77-.3-14.4-.53-20.38C1083,434.86,1083,441.62,1082.77,450.37Z" transform="translate(-10.47 -256.78)"/><path class="cls-2" d="M1082.59,418.48c.07,3.17.19,6.46.32,10C1082.85,425.14,1082.75,421.82,1082.59,418.48Z" transform="translate(-10.47 -256.78)"/><path class="cls-2" d="M1082,495.77a81.81,81.81,0,0,0,.43-8.88l-.43,4.44Z" transform="translate(-10.47 -256.78)"/><path class="cls-2" d="M1082,491.48v-.15c0-4.82,0-8.17,0-9.6C1082.05,483,1082,485.9,1082,491.48Z" transform="translate(-10.47 -256.78)"/><path class="cls-2" d="M1082,496.89v-1.12A4.2,4.2,0,0,0,1082,496.89Z" transform="translate(-10.47 -256.78)"/><path class="cls-2" d="M1081.51,544.63c-.23-6.63-.49-20.46-.86-7.08C1081,542.31,1081.15,534.65,1081.51,544.63Z" transform="translate(-10.47 -256.78)"/><path class="cls-2" d="M1081.49,502.41l-.1,12c.12-.24.28-2.4.4.88Z" transform="translate(-10.47 -256.78)"/><polygon class="cls-2" points="1070.88 239.75 1071.02 245.62 1071.05 241.18 1070.88 239.75"/><path class="cls-2" d="M1082.19,439c-.19-5.18-.21-10.84-.24-17.24-.08,6.86-.13,14-.12,20.68C1082,443.42,1082.2,446.38,1082.19,439Z" transform="translate(-10.47 -256.78)"/><path class="cls-2" d="M1082.07,464.52c0-.36,0-.82,0-1.16C1082,464.07,1082,464.64,1082.07,464.52Z" transform="translate(-10.47 -256.78)"/><path class="cls-2" d="M1082,358.76c0,.35,0,.65-.08,1,0,.08,0,.14.07.24Z" transform="translate(-10.47 -256.78)"/><path class="cls-2" d="M1081.75,443.62c-.09,5.15,0,8.23.15,11.17,0-3.85-.05-7.94-.07-12.33C1081.77,442,1081.73,442,1081.75,443.62Z" transform="translate(-10.47 -256.78)"/><path class="cls-2" d="M1082.39,400.9c-.07,2.69-.15,5.73-.24,8.93C1082.29,407.21,1082.5,401.85,1082.39,400.9Z" transform="translate(-10.47 -256.78)"/><path class="cls-2" d="M1082.16,461.63c0,.25,0,.49,0,.77C1082.27,460.71,1082.23,460.92,1082.16,461.63Z" transform="translate(-10.47 -256.78)"/><path class="cls-2" d="M1082.16,461.63c-.06-2.66-.17-4.74-.26-6.84,0,3.14.1,6,.14,8.57C1082.07,462.73,1082.12,462.09,1082.16,461.63Z" transform="translate(-10.47 -256.78)"/><path class="cls-2" d="M1079.21,339.67c.4.91.77,14.47.34,26.17.3,11.51,1.6,4,2.33-6.07-.17-.36-.33-.36-.57-12.21-.21,4.15-.5,26.3-.86,16.3-.2-15.7.14-12.86.35-20.49-.49,6.48-.72-20-1.45-16.56l.26,13.77C1079.5,340.84,1079.32,335.85,1079.21,339.67Z" transform="translate(-10.47 -256.78)"/><path class="cls-2" d="M1081.84,382.35l.05,4.88c.07-5.56.23-9.54.54-16.87-.2-8.11-.34-9.79-.48-10.35l0,24Z" transform="translate(-10.47 -256.78)"/><path class="cls-2" d="M1081.89,409.12c-.43-3.8-.61-15.52-1.08-8.34,0,14.31.36,10,.55,18.57-.11-23.09.24,6.64.48-10.05.07,4.54.1,8.62.11,12.48.07-4.16.14-8.17.2-11.95,0,.21,0,.36,0,.53v.09c0,1-.09,1.32-.06.2,0-.08,0-.36,0-.48a8,8,0,0,1-.16-1.05c.09-6.68.11-1.05.16,1.05,0,.07,0,.25.07.28v-.09l-.23-23.13C1081.83,392.12,1081.84,398.25,1081.89,409.12Z" transform="translate(-10.47 -256.78)"/><path class="cls-2" d="M1079.73,525.21c0-.72.07-.68.1-.74C1079.78,523,1079.74,522.41,1079.73,525.21Z" transform="translate(-10.47 -256.78)"/><path class="cls-2" d="M1080,515.7c.06,1.68.23,3.08.19,8.55-.13,4.74-.21,0-.35.22.11,3.3.31,11.54.52,1.2l-.06-1.63c.15-9.32.68-21.28.74-19.66C1080.65,507.1,1080.37,509.5,1080,515.7Z" transform="translate(-10.47 -256.78)"/><path class="cls-2" d="M1080.83,461.74l-.21-19.26-.37,9.81.22-.5C1080.38,462.75,1080.66,460.38,1080.83,461.74Z" transform="translate(-10.47 -256.78)"/><polygon class="cls-2" points="1071.7 99.78 1072.15 102.33 1071.51 91.2 1071.7 99.78"/><polygon class="cls-2" points="1071.64 74.74 1072.04 75.67 1071.8 69.06 1071.64 74.74"/><path class="cls-2" d="M15.65,535.06l.11,5.66C15.73,538,15.69,536.32,15.65,535.06Z" transform="translate(-10.47 -256.78)"/><path class="cls-2" d="M15.68,494.08l-.2-1C15.59,495,15.67,495.75,15.68,494.08Z" transform="translate(-10.47 -256.78)"/><path class="cls-2" d="M536.18,257.62c-8.25-.37-17.46-.95-16.46-.5l2.53.43C528,257.47,532.42,257.52,536.18,257.62Z" transform="translate(-10.47 -256.78)"/><path class="cls-2" d="M115.11,260.21l2.41.13,5.57-.42Z" transform="translate(-10.47 -256.78)"/><path class="cls-2" d="M109.29,262l-10.87-.28C100.87,261.82,104.36,261.91,109.29,262Z" transform="translate(-10.47 -256.78)"/><path class="cls-2" d="M16.11,758.87l.44,6.6C16.55,755.14,16.33,759.69,16.11,758.87Z" transform="translate(-10.47 -256.78)"/><path class="cls-2" d="M894.6,257.73c-7.11-.17-12.77-.24-17.75-.26C885.42,257.72,892.34,258.09,894.6,257.73Z" transform="translate(-10.47 -256.78)"/><path class="cls-2" d="M11.05,518.93c.08,3.47.16,5,.26,4.84C11.24,520.21,11.15,518.19,11.05,518.93Z" transform="translate(-10.47 -256.78)"/><path class="cls-2" d="M856.3,257.47l3.76.1c5.21-.07,10.44-.13,16.79-.1C870.52,257.28,863.27,257.17,856.3,257.47Z" transform="translate(-10.47 -256.78)"/><path class="cls-2" d="M774.35,807l1.84.05A8,8,0,0,0,774.35,807Z" transform="translate(-10.47 -256.78)"/><path class="cls-2" d="M1010.83,811.4l-9.71,0C1002.86,811.46,1005.79,811.46,1010.83,811.4Z" transform="translate(-10.47 -256.78)"/><path class="cls-2" d="M1050.27,257.38c5.31,0,.84-.05,0,0Z" transform="translate(-10.47 -256.78)"/><path class="cls-2" d="M1076.19,259.1l-.89,0-.64,0a2.28,2.28,0,0,0-.69.13,6.55,6.55,0,0,1,.87-.13l.59-.05Z" transform="translate(-10.47 -256.78)"/><path class="cls-2" d="M803.42,260.17H803C804.54,260.25,804.27,260.24,803.42,260.17Z" transform="translate(-10.47 -256.78)"/><path class="cls-2" d="M1058.26,257.58l-6.79-.13Z" transform="translate(-10.47 -256.78)"/><path class="cls-2" d="M1057.19,257.37l4.64.05C1062.5,257.34,1061.9,257.3,1057.19,257.37Z" transform="translate(-10.47 -256.78)"/><path class="cls-2" d="M1042.88,257.41c3,0,5.86,0,8.59,0-1,0-1.48-.05-1.2-.07Z" transform="translate(-10.47 -256.78)"/><path class="cls-2" d="M339.44,808.18l1.14,0C345.93,808,343.58,808.07,339.44,808.18Z" transform="translate(-10.47 -256.78)"/><path class="cls-2" d="M398,262.12l.61,0h-.79Z" transform="translate(-10.47 -256.78)"/><path class="cls-2" d="M378.92,262.44c8.12-.54,12.74-.47,18.89-.35l-6.31-1.26Z" transform="translate(-10.47 -256.78)"/><path class="cls-2" d="M15.78,633.18l.39-13.39c.64,16.16.42,27.86,1,15.29-1.35-1.9-.13-52.06-1.49-53.92l.28-8.83c0,2.53.07,2.94.06,5.44.65-17.17-1-12.76-.79-34.88.1-7.71.3-13.09.46-7.83l-.33-17.18c0-5,.26-3.78.23,1.2l-.11-26.2,0,.19c-.21-3.74-.54-12.21-.68-16.34.2-6.66.14,3.34.31,1.63l-.33-14.5c.36-5.91.7,6.11.65,16.13,1.35-13.55-.34-12,.45-41.28l.17,13.7c.77-8.83.49-19.52,1-35-.25,3.68-1.21,31-1.55,15.26.11-4.43.15-10.28-.12-18.78.48-.08.37-8.37.34-18.75l.64.71c-.19-11.22-.51-10.33-.8-16.93.06-12.51.56-15.1,1-18.05.1-20-.8,13.83-.92-9.87.25-16.65,0-28.35-.4-48.27.22-11.66.39,2,.58-2.15l-.51-10.33c0-2.53.16-1.71.24-1.3-.19-8.71-.64-.72-.81-14.4a35.35,35.35,0,0,1-.16-5.12l.08-4.24,0-1.2,0-.8.07-1.6,2.22.1,3.65.1,7.86.16c5.31.06,10.65,0,15.41-.19,4.18.18-2,.39-.74.64,23.24-.52,19.93-.38,39-1.09l16.26.42c-12-.48,3.32-1.05,16.69-1.51-4.24-.24-7.86-.44-10.29-.54l21.34-.34c2.57.11.42.33-3.07.59l3.91-.15c7.63.24,3.67.61-1.79,1l-7.69-.39c-5.27.39-10.2.82-9.1,1.19,1.38-.07,4-.14,7-.17-1.38.1-2.26.2-1.62.26s2.95-.07,6.44-.23l4.85.71,1.18-.28,27.91.44c20-.72,37.35-1.77,69-2.07-7.86.53-1.69.86-2.11,1.48-8.65-.66-24.55.27-41,.14,8.57.07,6.69.37,4.5.47l29.3-.6c-.66.51,6.23.38,13.88.59-5.78-1,21.84-.67,33.76-1,.74.33-2.11.68-16.66.6,16,.75,20.74-1.18,36.49-.54-3.55,0-5.47,0-6.87.13,8.29-.3,28.58-.06,23.8.23h-3.54c23.58.11,71.78,0,75.29-.85.24.11-3.09,1-4.51,1.2l42.07-2.86c-3.71.73,10.52,2.47-9,2.88,5.61.11,12.56.23,24.39,0-3.83-.11-9.54-1.06-4.31-1.12,14.36.81,10,.43,27.68,1.12-5.74-.15.64-1.3,9.71-1.26-1.42.17.75,1.13-2.56,1.25l22.58-1.13c-5.64.21-1,1,4.06,1.28-2.35-.23,19.52,0,25.54-.1l-9.58-.26c25.5.17,25.19-1.58,50.48-1.52-3.06.23-7.56,1.43,5.3,1.57,5.89-.57,26.1-2.77,48.48-3.21l4.29.33,17.17-.38c-10.69.87-40.69,2.69-57.08,3.4,9.54.26,2.66.39,17,.36,5,.31-7.79.47-12,.49l33.26.2c-1.48-.68,25.44-.68,24.17-1.24l-36.13.7c-1.46-.67,20.89-1.91,44.46-1.79,6,.27-4.48,1.2-4,1.42,3.06-.23,22.37-.44,24.53-.28l-10,.36c13.12.25,21.42-.89,37.18-.25,5.45,0,16.25.87,17.2.47-8.88-.77-10.62-3.14-4.7-3.72,1.91.06,28.58.74,34.79,1.12,9,.6-13.45,1.43-5.82,1.95.32-.19,5.27-.41,7.34-.49,5.71.16-2.37.57,10,.49,2.07-.68,25.26.06,5.87-.58,12.15-.19,12.91.14,27.18.11-4.54-.44,12.81-1.5,25-1.69-.72.17,2,.4,3.34.5,24.9.06,38.27.37,61.49.38,2.14.16,13.34.36,8.57.66,3.34-.12,6.41-.36,13.57-.37,13.86.59-16,.09-5.4.8.9-.4,18.52-.55,28.72-.8-3.14-.61-23.57-.11-33.78.13-.05-.84,17.73-1.72,42-2.11,19.29-.21,8.37.54,11.72.42,36.23.15,30.86-1.47,61-.86,11.93.53.54,1.07,3.18,1.45-15.71.21-24.12-.34-34.77-.32l13.11.26c-5,.18-15.49.31-21.2.16,10,.48,61.21.09,89.16.54,5-.18,13.54-.37,9.48-.59l-8.84.08c-8.13-.43,16.65-.6,5.45-.8l15.26-.4,8.42-.15,4.45,0,6.14,0c0,1.94,0,3.94,0,6,0,1.52,0,3.08,0,4.66l-.61,3.14c.07-.14.14-1.93.19-4.32,0-1.2,0-2.54.06-3.91V259c-1.66,0-3.14,0-4.31.07,1.17,0,2.63,0,4.28,0,0,1.33,0,2.8,0,4.36,0,1.26,0,2.59-.08,4-.06,2.68-.13,5.53-.19,8.33a137.37,137.37,0,0,0,.24,14.28l.42-11.71c.31,11.91,1,26.64.77,41.44.61-6.74-.07-3.41.64-13.93-.88,9.12,0-37.87-.89-23.22.3-3.92.43-7.46.5-11.06.06-4.42.12-8.91.19-14l-4-.06-2.09,0-1.44,0-5.45-.23c.43.2,5,.39-7.43.29-.56.06-1.89.13-2.73.17h-.84l.69,0c-.54,0-.59,0,.25,0,3,.09,5.36.2,6.33.31-6.16.46-25.93.45-32.61.69-7.37-.1,3.09-.23-.94-.45l-10,.36c-1-.45-19.59-.75-2.22-1l-15.63,0c-9.21-.25-21.87-.35-29.68-.16-7.37-.1-18.62.5-12.2.14l-24.52.28-.23-.11c-24.19-.06-49.8.74-77.46-.07-8.14.12-16.56.26-30.18.13l-2.66-.39c-10.46.13-31.4-.39-35.9,0-11.28-1.05-50.75-.23-69.14-.42l-.69.51c-12.66,0-24.8.11-40.51.32l1,.45c-13.55.36-34.83-.32-56.26-.28,1.46-.17,6.89-.12,10.74,0-25.6-1-54,.74-77.23,0-5.79.16-10,.11-14,0l1.44,0h-2.38l-8-.23c2.42.11,4.74.19,6.76.24-4.46,0-11.23.06-17.87.17l-2.82-.48-1.54,0c-6.51-.18-5.23.22-1.76.59-3.34.08-6.4.17-8.77.29-5.29-.78-17.4.26-24.62-.57-4.47.4-33.35.3-36.89,1.15-.22-.11-2.18-.16,1.4-.17-7.39-.09-14.78-.19-21.42.05l-3.14-.61-16.14.82c-9.81-.37-13.88-.59-4.14-1.06-23.52.72-19.08.27-39.09,1l1-.4c-7.15,0-18.58.55-22.9.22-16-.75-79.14-.1-120.2-.8,8,1.17-19.08-.52-20.71.38-2.39-.27-8.11-.43-1.46-.67-20.95.27-31.48-.44-45.95.32-2.4-.27,4.48-.4,2.35-.56-1.68.06-6.66.24-8.84.07s3.07-.23,6.39-.35c-21.41.05-23.57.9-25.13,1.69a209.76,209.76,0,0,0-24.09.2c-3.78-.26-10.07-.53,3.22-.62-7.48,0-45.7-.39-46.46.25-2.35-.16-10.46,0-12.43,0l-17.49-.06-17.6,0,4.91.11c-1.16.13-2.34.23-3.57.29-1.51.06-3.06.09-4.72.1V264l-.06,4.48c0,3.19-.09,6.85-.06,11.13l-.08-.38c-.55,30.48.27,13.16-.37,43.22l.48-1.63c1,2.8-.6,26.63-.21,44.08l.27-6.3c.36,9.53-1.4,26.64-1.53,36.21-.09,2.09-.14-3.29-.21-6.2-.61,25.05.63,3.24.78,21.91-.34,3.45-.87-4.43-.93,8.13-.27,6.26,1.1,36.45.45,53.6.26-3.78.52-7.53.72,1.14.09,13.3-1,35.94-.16,47.94a10.94,10.94,0,0,1-.21,2.4c.21,10.16.35,33,.8,39.15-1.66,9.39.81,63.17-.72,62.94l.08,31.26-.16-.82c-.1,20,.27,27,.64,34.07-.11,4.61-.25,1.24-.33.86-.31,29.19-.24,32.09.52,56.57l-.5,2.54c.13,2.88,0,11.2-.14,22l-.19,17.78,0,9.61,0,11.72,7.89-.05,5.78-.1a20.12,20.12,0,0,1-3.15.22c32.21-.58,77.12,1.38,88.92-.43l21.26-.44c-27.5-.14,4.09-.78-7.22-1.08,10.82-.11,28,.54,14.67.63l-2.08-.09c-4.88.94,34.18.34,33.44,1,54.11,0,106.86.47,157.55.51l-5.84-.73,17.68,0c4.64.17,6.23.57-6.38.54,3.31.21,8.6.12,13.11,0s8.22-.39,8.4-.47c24.7.29-9.64.85-2.07.87l10.29-.06-2.32-.08c8.33-.3,9.07-.62,24.24-.58,9.59.15,4.92.45,8.69.48a6.87,6.87,0,0,0,1.19,0l4.61,0,22.27.06-8.91-.58c9.88-.28,20.95,0,10.67-.62,15.09,1,83.1.36,92.37.68,13.83-.43,27.48-.42,44.39-.37-4.21-.12-6.72-.77,7.86-.69-5.33,1.34,26.71.58,38.5,1.55-10.54-.64,41.46-.16,24.93-1.07,12.17.11.74.5,10,.82,29-.52,63.84.34,99.64.16.56-.17-5.44-.44,2.24-.71l18.91.88c7.07-.08,6.51-1,19.43-.4-1.83-.15-4.55-.37.19-.43,70.14.86,143.33-.7,214.56.91-9.65-.34-3.22-.37,4.15-.39-4.79-.08.11-.43-.83-.67l29.82.66c5.43-.66,32,0,35.08-.67l-9.44.11c12.56-.75-17.58-1.66-15.74-2.62-14.06.85-37.08-1.25-60.15,0-5.09-.2,4.34-.31,1.62-.53-5.85.41-12.91.5-26,.31l1.48-.1c-36.77.1-52.53-.31-93.84-.57l3.06.47c-8.88-.06-10.75-.21-14.9-.33-10.19.72,24.93,0,15.65.83-11.78-1-62.6,0-70.56-1.11-13.66,0,4,.55-9.65.54l-3.62-.29-3.45.38c-8.95-.06-13.47-.44-13.8-.69,2.17,0,6.17-.07,8.5-.09-11.61-.35-32.73.12-36.72,0l13.12.18c-37.27.28-82.77-.11-118.77.49l2.73.22c-27.5.42-22-.24-52.21,0l1.1,0c-6,.22-14.11.33-22.37.31,7.62-.27-14.35-.51-4.35-.8-29.81.44-14.74.35-34.44,1.18l-4.54-.37c-6.71.33-7.27.51-22.34.61,12.36-.32-9.63-.57,4.22-1-31.63-.81-47,.82-61.49-.37-14.52,1,27.38.57,19.25.79,6.81.34-12,.77-21.93.67-10.1,0-17.18-1.32-42.6-1.3,2.53,0,2.7-.07,5.22-.07-9.51-.26-18.64.36-30.31-.07-6.54.62-15.15,0-17,.76L374.2,808c-13.22.2-25.61,1.13-47.39.68,1.69-.16,8.17-.37,12.63-.49-6.37-.23-12.27.16-18.87-.08,1.88-.79,28.34-.17,42.51-.78-6.84-.33-26.8.58-19.68-.28-10.23,1.09-25-.14-42.26.69l1.13-.47c-2.72.07-8.37.3-13.38.29l9.08-.62c-13.94.52-26.87-.46-40.24-.17,28,0,6.28.57,18.11.91-34.52.64-19.85-1.24-58.5-1,5.23-.07,19.64.29,11.46.51-7.36-.1-17.08-.28-21.59-.53-25.61.1,3.93.49-7,.78-8.72-.58-12.58.23-23.8.42l-.08-.49c-29.19-.3-7.74,1-34,.64l11.11-.67-13.7.17,2.83-.55c-14.9.41-19.54.3-34.14.15,3.39.34-1.91.87-14.84.89-8.81-.29,4.94-.46-13.38-.39a112.78,112.78,0,0,1,16.64-.24c.81-.15,4.08-.3,4.92-.45-9.5-.33-23.86-.08-30.49-.07,2.55,0,5.6,0,7.17.11l-26.56.67c-4.18-.18-.87-.33,2.42-.47-5.38.05-9.1.27-17,.31,2-.39,1.55-.79,12.75-1l-25.31.44c-.84-.09-4.09-.21-6.71-.32l-.92,0-.19,0-.24-.08c-.1-.06-.07-.1.09-.14l-.28,0,0-.44V804l-.07-5.89-.24-12.78c-.17-8.85-.32-18.19-.18-27.11-.07-1-.14-2.91-.2-6.86.09-17.48.57-33,0-53.69l.7-11.76c-.16-16.23-.88,15.92-1.15-11.1-.22-19.13.6-7.14.8-13.86-.36-9.51-1.08-26-.5-43.62C15.83,623.19,15.72,627.75,15.78,633.18Zm-.32-200.13c.11,3.87.42,11.61.13,14.44C15,443.07,15.31,439.66,15.46,433.05ZM144.57,261.13c-2.88.16-7.34.08-12.37-.1C135.85,261,140,261,144.57,261.13Zm847.51-3.36-.42,0C983,257.61,986.08,257.69,992.08,257.77Zm18,.21c1.8-.06,1.68-.13.92-.2-1.26.12-5.29.13-9.88.1A82.72,82.72,0,0,0,1010,258ZM396.15,811.43l-3.5-.13C400.54,811.17,398.33,811.29,396.15,811.43Z" transform="translate(-10.47 -256.78)"/><path class="cls-2" d="M110.08,261.79a5.84,5.84,0,0,1-1.66-.26C106.89,261.61,106.86,261.71,110.08,261.79Z" transform="translate(-10.47 -256.78)"/><path class="cls-2" d="M16,757.65v.61a3.49,3.49,0,0,0,.09.61Z" transform="translate(-10.47 -256.78)"/><path class="cls-2" d="M731.79,262.07c-3.7-.06-5.76-.15-7.13-.24C724.46,261.94,726.14,262,731.79,262.07Z" transform="translate(-10.47 -256.78)"/><path class="cls-2" d="M1082.52,285.75l-.12-11.5c0,5.56-.08,7.55-.16,10.36C1082.35,284.35,1082.52,282.16,1082.52,285.75Z" transform="translate(-10.47 -256.78)"/><path class="cls-2" d="M1079.54,385.62c.06,1.69,0,3.57.07,5.23l.22-.46C1079.81,383.23,1079.63,378.22,1079.54,385.62Z" transform="translate(-10.47 -256.78)"/><path class="cls-2" d="M1080.92,296.41c-.4.91-.27,8.13-.19,16.18v-1.42C1081.3,313.55,1081.11,305,1080.92,296.41Z" transform="translate(-10.47 -256.78)"/><path class="cls-2" d="M1080.74,314.46c0,2.49,0,5,0,7.45C1081,322.86,1080.8,318.89,1080.74,314.46Z" transform="translate(-10.47 -256.78)"/><path class="cls-2" d="M1032.82,257.72c3.82.1,2.4-.52,4.56-.36C1041.65,256.85,1011.9,258,1032.82,257.72Z" transform="translate(-10.47 -256.78)"/><polygon class="cls-2" points="1069.11 46.15 1069.61 43.26 1069.21 38.74 1069.11 46.15"/><path class="cls-2" d="M1058.77,259.74l12.87.14a18.5,18.5,0,0,1,3.46-.17C1067.16,259.69,1058.46,259.59,1058.77,259.74Z" transform="translate(-10.47 -256.78)"/><path class="cls-2" d="M1075.1,259.71H1080c0,1.32,0,2.55,0,3.64s0,1.91.06,2.65c0-1.45,0-3.88,0-6.34Z" transform="translate(-10.47 -256.78)"/><polygon class="cls-2" points="1068.96 28.55 1069.06 24.74 1069.1 15.64 1068.96 28.55"/><path class="cls-2" d="M920.32,259.64l-14.05.14c-1.43.18,2.4.28,7.63.21C917.26,259.87,922.48,259.81,920.32,259.64Z" transform="translate(-10.47 -256.78)"/><path class="cls-2" d="M962.83,261c-3.8-.1-4.06-.21-6.2-.38l-.43.62Z" transform="translate(-10.47 -256.78)"/><path class="cls-2" d="M921.84,261.16c-1.4.17-20.4.49-2.58.45C920.68,261.44,934.76,261.3,921.84,261.16Z" transform="translate(-10.47 -256.78)"/><polygon class="cls-2" points="699.58 3.59 703.16 3.58 702.64 2.56 699.58 3.59"/><path class="cls-2" d="M523.39,262.81c16.66.24,4-.63,19-.33,3.91-.24-12.3-.24-8.29-.45C524.05,262.28,518.77,262.14,523.39,262.81Z" transform="translate(-10.47 -256.78)"/><path class="cls-2" d="M534.11,262l5.13-.16C536.33,261.94,535,262,534.11,262Z" transform="translate(-10.47 -256.78)"/><polygon class="cls-2" points="1039.59 555.17 1050.3 555.38 1043.39 555.04 1039.59 555.17"/><path class="cls-2" d="M1070.63,811.19l2.52.65,6.43-.59C1077.16,811.28,1072.47,811.34,1070.63,811.19Z" transform="translate(-10.47 -256.78)"/><path class="cls-2" d="M16.77,403.29l-.15-.81c-.17,1.65-.19,4.16-.21,9.18Z" transform="translate(-10.47 -256.78)"/><polygon class="cls-2" points="5.81 291.77 5.83 289.27 5.24 293.94 5.81 291.77"/><path class="cls-2" d="M17,670.46,17,654.64C17.06,665.49,16.3,671.81,17,670.46Z" transform="translate(-10.47 -256.78)"/><path class="cls-3" d="M13.28,643.06c61.56-15.65,125.67,1.78,166.44,46,44.38,48.16,42.59,108,41.95,120.44" transform="translate(-10.47 -256.78)"/><path class="cls-3" d="M221.67,809.5H13.28V643.06Z" transform="translate(-10.47 -256.78)"/><path class="cls-3" d="M179.72,689.06c46.65-78.57,145.53-104,216.51-63.59,60.26,34.3,91,110.73,70.36,184Z" transform="translate(-10.47 -256.78)"/><path class="cls-3" d="M466.59,809.5l-244.72.56-42.15-121Z" transform="translate(-10.47 -256.78)"/><path class="cls-3" d="M531.16,633.9c62.31-10.06,111.89,62.37,101.48,84.58-6.87,14.67-45.74,19.81-172.91-12.3C468.33,668.18,497,639.41,531.16,633.9Z" transform="translate(-10.47 -256.78)"/><path class="cls-4" d="M662.8,662c0,11.46,154.81,148.06,167.8,148.06" transform="translate(-10.47 -256.78)"/><path class="cls-4" d="M662.8,662c0,.85-42.36,11-45.92,11" transform="translate(-10.47 -256.78)"/><path class="cls-5" d="M616.88,673c37.41-33.19,93.08-34.24,129.91-4.06,39.92,32.73,47.68,94,15.19,137.62" transform="translate(-10.47 -256.78)"/><path class="cls-5" d="M779.32,721.17c-12.49-37.63-5.71-77.08,17.45-97.06C829.86,595.56,899.64,604,937.5,662Z" transform="translate(-10.47 -256.78)"/><path class="cls-5" d="M1079.58,633c-18.44-53.2-58.69-89.94-94.72-88.68-47.29,1.66-102.59,69.33-86.6,161Z" transform="translate(-10.47 -256.78)"/><rect class="cls-5" x="449.25" y="449.4" width="619.86" height="100.33"/><rect class="cls-5" x="595.49" y="416.17" width="56.83" height="32.35"/><rect class="cls-5" x="805.57" y="376.17" width="263.54" height="116.61"/><polygon class="cls-6" points="81.29 137.29 74.86 136.45 70.53 141.27 69.34 134.9 63.42 132.27 69.11 129.17 69.78 122.73 74.49 127.18 80.82 125.83 78.04 131.68 81.29 137.29"/><polygon class="cls-6" points="99.16 58.89 92.73 58.05 88.4 62.87 87.21 56.5 81.29 53.87 86.98 50.77 87.65 44.32 92.36 48.78 98.69 47.42 95.91 53.28 99.16 58.89"/><polygon class="cls-6" points="1020.16 58.89 1013.74 58.05 1009.4 62.87 1008.22 56.5 1002.29 53.87 1007.98 50.77 1008.66 44.32 1013.36 48.78 1019.7 47.42 1016.92 53.28 1020.16 58.89"/><polygon class="cls-6" points="1020.16 173.51 1013.74 172.67 1009.4 177.49 1008.22 171.12 1002.29 168.49 1007.98 165.39 1008.66 158.95 1013.36 163.4 1019.7 162.05 1016.92 167.9 1020.16 173.51"/><polygon class="cls-6" points="661.26 102.75 654.84 101.91 650.5 106.73 649.32 100.36 643.39 97.73 649.08 94.63 649.76 88.18 654.46 92.64 660.8 91.28 658.02 97.14 661.26 102.75"/><polygon class="cls-6" points="154.9 260.51 148.47 259.67 144.14 264.49 142.95 258.12 137.03 255.49 142.72 252.39 143.39 245.95 148.1 250.4 154.43 249.05 151.65 254.9 154.9 260.51"/><polygon class="cls-6" points="893.9 68.16 887.48 67.32 883.14 72.14 881.96 65.77 876.03 63.14 881.73 60.04 882.4 53.6 887.1 58.05 893.44 56.7 890.66 62.55 893.9 68.16"/><polygon class="cls-6" points="661.26 40.34 654.84 39.5 650.5 44.32 649.32 37.95 643.39 35.32 649.08 32.22 649.76 25.78 654.46 30.23 660.8 28.88 658.02 34.73 661.26 40.34"/><polygon class="cls-6" points="535.96 68.16 529.53 67.32 525.2 72.14 524.01 65.77 518.09 63.14 523.78 60.04 524.45 53.6 529.15 58.05 535.49 56.7 532.71 62.55 535.96 68.16"/></svg>